<?xml version="1.0" encoding="UTF-8" standalone="no"?>
<!DOCTYPE svg PUBLIC "-//W3C//DTD SVG 1.1//EN" "http://www.w3.org/Graphics/SVG/1.1/DTD/svg11.dtd">
<svg width="100%" height="100%" viewBox="0 0 4096 4096" version="1.1" xmlns="http://www.w3.org/2000/svg" xmlns:xlink="http://www.w3.org/1999/xlink" xml:space="preserve" xmlns:serif="http://www.serif.com/" style="fill-rule:evenodd;clip-rule:evenodd;stroke-linejoin:round;stroke-miterlimit:2;">
    <g transform="matrix(3.2,0,0,-3.2,1638.4,3686.4)">
        <rect x="0" y="0" width="256" height="256" style="fill:rgb(56,182,255);"/>
    </g>
    <g transform="matrix(3.2,0,0,-3.2,1638.4,2867.2)">
        <rect x="0" y="0" width="256" height="256" style="fill:rgb(82,113,255);"/>
    </g>
    <g transform="matrix(3.2,0,0,-3.2,1638.4,2048)">
        <rect x="0" y="-0" width="256" height="256" style="fill:rgb(56,182,255);"/>
    </g>
    <g transform="matrix(3.2,0,0,-3.2,819.2,2048)">
        <rect x="0" y="-0" width="256" height="256" style="fill:rgb(92,225,230);"/>
    </g>
    <g transform="matrix(3.2,0,0,-3.2,2457.6,2867.2)">
        <rect x="0" y="0" width="256" height="256" style="fill:rgb(92,225,230);"/>
    </g>
    <g transform="matrix(3.2,0,0,-3.2,819.2,1228.8)">
        <rect x="0" y="0" width="256" height="256" style="fill:rgb(82,113,255);"/>
    </g>
</svg>
