<?xml version="1.0" encoding="UTF-8" standalone="no"?>
<!DOCTYPE svg PUBLIC "-//W3C//DTD SVG 1.1//EN" "http://www.w3.org/Graphics/SVG/1.1/DTD/svg11.dtd">
<svg width="100%" height="100%" viewBox="0 0 4096 2048" version="1.1" xmlns="http://www.w3.org/2000/svg" xmlns:xlink="http://www.w3.org/1999/xlink" xml:space="preserve" xmlns:serif="http://www.serif.com/" style="fill-rule:evenodd;clip-rule:evenodd;stroke-linejoin:round;stroke-miterlimit:2;">
    <g transform="matrix(0.985439,0,0,-0.985439,616.999,1528.54)">
        <rect x="-0" y="0" width="256" height="256" style="fill:rgb(56,182,255);"/>
    </g>
    <g transform="matrix(0.985439,0,0,-0.985439,616.999,1276.27)">
        <rect x="-0" y="0" width="256" height="256" style="fill:rgb(82,113,255);"/>
    </g>
    <g transform="matrix(0.985439,0,0,-0.985439,616.999,1024)">
        <rect x="-0" y="0" width="256" height="256" style="fill:rgb(56,182,255);"/>
    </g>
    <g transform="matrix(0.985439,0,0,-0.985439,364.726,1024)">
        <rect x="0" y="0" width="256" height="256" style="fill:rgb(92,225,230);"/>
    </g>
    <g transform="matrix(0.985439,0,0,-0.985439,869.271,1276.27)">
        <rect x="0" y="0" width="256" height="256" style="fill:rgb(92,225,230);"/>
    </g>
    <g transform="matrix(0.985439,0,0,-0.985439,364.726,771.728)">
        <rect x="0" y="-0" width="256" height="256" style="fill:rgb(82,113,255);"/>
    </g>
    <g transform="matrix(10.6667,0,0,10.6667,-58.8514,-1012.52)">
        <g transform="matrix(39.7275,0,0,39.7275,91.7659,186.491)">
            <path d="M0.007,-0L0.282,-0.7L0.416,-0.7L0.689,-0L0.535,-0L0.394,-0.377C0.39,-0.388 0.385,-0.401 0.38,-0.418C0.374,-0.435 0.368,-0.452 0.362,-0.471C0.356,-0.49 0.35,-0.507 0.345,-0.525C0.34,-0.542 0.336,-0.556 0.333,-0.567L0.36,-0.567C0.356,-0.552 0.352,-0.537 0.346,-0.521C0.342,-0.504 0.336,-0.488 0.331,-0.47C0.326,-0.454 0.32,-0.437 0.314,-0.421C0.308,-0.405 0.302,-0.389 0.297,-0.374L0.156,-0L0.007,-0ZM0.135,-0.147L0.184,-0.267L0.505,-0.267L0.555,-0.147L0.135,-0.147Z" style="fill:rgb(84,84,84);fill-rule:nonzero;"/>
        </g>
        <g transform="matrix(39.7275,0,0,39.7275,119.416,186.491)">
            <path d="M0.318,0.01C0.275,0.01 0.235,0.005 0.2,-0.006C0.164,-0.017 0.132,-0.032 0.105,-0.053C0.077,-0.074 0.052,-0.099 0.03,-0.128L0.124,-0.235C0.157,-0.19 0.189,-0.159 0.222,-0.142C0.254,-0.126 0.289,-0.118 0.327,-0.118C0.348,-0.118 0.366,-0.121 0.383,-0.127C0.399,-0.133 0.412,-0.141 0.421,-0.152C0.43,-0.162 0.435,-0.174 0.435,-0.189C0.435,-0.2 0.433,-0.21 0.428,-0.219C0.423,-0.228 0.417,-0.235 0.408,-0.243C0.399,-0.25 0.389,-0.256 0.377,-0.262C0.365,-0.267 0.352,-0.272 0.337,-0.277C0.322,-0.281 0.306,-0.284 0.289,-0.287C0.252,-0.296 0.219,-0.306 0.191,-0.319C0.163,-0.331 0.14,-0.346 0.121,-0.365C0.102,-0.383 0.089,-0.404 0.08,-0.427C0.07,-0.45 0.066,-0.477 0.066,-0.506C0.066,-0.536 0.073,-0.564 0.086,-0.59C0.099,-0.615 0.118,-0.637 0.141,-0.656C0.165,-0.675 0.193,-0.689 0.224,-0.699C0.255,-0.709 0.287,-0.714 0.322,-0.714C0.365,-0.714 0.402,-0.709 0.434,-0.7C0.466,-0.691 0.494,-0.677 0.518,-0.659C0.541,-0.64 0.561,-0.618 0.577,-0.592L0.482,-0.5C0.468,-0.519 0.453,-0.534 0.437,-0.547C0.42,-0.56 0.403,-0.569 0.384,-0.576C0.365,-0.582 0.345,-0.585 0.325,-0.585C0.303,-0.585 0.284,-0.582 0.268,-0.577C0.252,-0.571 0.239,-0.563 0.231,-0.552C0.222,-0.541 0.217,-0.528 0.217,-0.513C0.217,-0.501 0.22,-0.49 0.226,-0.481C0.232,-0.472 0.241,-0.464 0.252,-0.457C0.263,-0.45 0.277,-0.443 0.293,-0.438C0.309,-0.433 0.327,-0.428 0.346,-0.424C0.383,-0.417 0.416,-0.407 0.445,-0.395C0.474,-0.383 0.5,-0.369 0.521,-0.352C0.542,-0.335 0.558,-0.315 0.569,-0.292C0.58,-0.269 0.586,-0.243 0.586,-0.214C0.586,-0.167 0.575,-0.126 0.552,-0.093C0.529,-0.06 0.498,-0.034 0.458,-0.017C0.418,0.001 0.371,0.01 0.318,0.01Z" style="fill:rgb(84,84,84);fill-rule:nonzero;"/>
        </g>
        <g transform="matrix(39.7275,0,0,39.7275,144.483,186.491)">
            <path d="M0.318,0.01C0.275,0.01 0.235,0.005 0.2,-0.006C0.164,-0.017 0.132,-0.032 0.105,-0.053C0.077,-0.074 0.052,-0.099 0.03,-0.128L0.124,-0.235C0.157,-0.19 0.189,-0.159 0.222,-0.142C0.254,-0.126 0.289,-0.118 0.327,-0.118C0.348,-0.118 0.366,-0.121 0.383,-0.127C0.399,-0.133 0.412,-0.141 0.421,-0.152C0.43,-0.162 0.435,-0.174 0.435,-0.189C0.435,-0.2 0.433,-0.21 0.428,-0.219C0.423,-0.228 0.417,-0.235 0.408,-0.243C0.399,-0.25 0.389,-0.256 0.377,-0.262C0.365,-0.267 0.352,-0.272 0.337,-0.277C0.322,-0.281 0.306,-0.284 0.289,-0.287C0.252,-0.296 0.219,-0.306 0.191,-0.319C0.163,-0.331 0.14,-0.346 0.121,-0.365C0.102,-0.383 0.089,-0.404 0.08,-0.427C0.07,-0.45 0.066,-0.477 0.066,-0.506C0.066,-0.536 0.073,-0.564 0.086,-0.59C0.099,-0.615 0.118,-0.637 0.141,-0.656C0.165,-0.675 0.193,-0.689 0.224,-0.699C0.255,-0.709 0.287,-0.714 0.322,-0.714C0.365,-0.714 0.402,-0.709 0.434,-0.7C0.466,-0.691 0.494,-0.677 0.518,-0.659C0.541,-0.64 0.561,-0.618 0.577,-0.592L0.482,-0.5C0.468,-0.519 0.453,-0.534 0.437,-0.547C0.42,-0.56 0.403,-0.569 0.384,-0.576C0.365,-0.582 0.345,-0.585 0.325,-0.585C0.303,-0.585 0.284,-0.582 0.268,-0.577C0.252,-0.571 0.239,-0.563 0.231,-0.552C0.222,-0.541 0.217,-0.528 0.217,-0.513C0.217,-0.501 0.22,-0.49 0.226,-0.481C0.232,-0.472 0.241,-0.464 0.252,-0.457C0.263,-0.45 0.277,-0.443 0.293,-0.438C0.309,-0.433 0.327,-0.428 0.346,-0.424C0.383,-0.417 0.416,-0.407 0.445,-0.395C0.474,-0.383 0.5,-0.369 0.521,-0.352C0.542,-0.335 0.558,-0.315 0.569,-0.292C0.58,-0.269 0.586,-0.243 0.586,-0.214C0.586,-0.167 0.575,-0.126 0.552,-0.093C0.529,-0.06 0.498,-0.034 0.458,-0.017C0.418,0.001 0.371,0.01 0.318,0.01Z" style="fill:rgb(84,84,84);fill-rule:nonzero;"/>
        </g>
        <g transform="matrix(39.7275,0,0,39.7275,169.551,186.491)">
            <path d="M0.091,-0L0.091,-0.7L0.564,-0.7L0.564,-0.568L0.238,-0.568L0.238,-0.132L0.571,-0.132L0.571,-0L0.091,-0ZM0.161,-0.293L0.161,-0.421L0.516,-0.421L0.516,-0.293L0.161,-0.293Z" style="fill:rgb(84,84,84);fill-rule:nonzero;"/>
        </g>
        <g transform="matrix(39.7275,0,0,39.7275,194.777,186.491)">
            <path d="M0.237,-0L0.237,-0.565L0.033,-0.565L0.033,-0.7L0.597,-0.7L0.597,-0.565L0.387,-0.565L0.387,-0L0.237,-0Z" style="fill:rgb(84,84,84);fill-rule:nonzero;"/>
        </g>
        <g transform="matrix(39.7275,0,0,39.7275,219.805,186.491)">
            <path d="M0.091,-0L0.091,-0.7L0.241,-0.7L0.241,-0L0.091,-0ZM0.16,-0.278L0.16,-0.407L0.522,-0.407L0.522,-0.278L0.16,-0.278ZM0.16,-0.565L0.16,-0.7L0.564,-0.7L0.564,-0.565L0.16,-0.565Z" style="fill:rgb(84,84,84);fill-rule:nonzero;"/>
        </g>
        <g transform="matrix(39.7275,0,0,39.7275,244.157,186.491)">
            <path d="M0.091,-0L0.091,-0.7L0.564,-0.7L0.564,-0.568L0.238,-0.568L0.238,-0.132L0.571,-0.132L0.571,-0L0.091,-0ZM0.161,-0.293L0.161,-0.421L0.516,-0.421L0.516,-0.293L0.161,-0.293Z" style="fill:rgb(84,84,84);fill-rule:nonzero;"/>
        </g>
        <g transform="matrix(39.7275,0,0,39.7275,269.383,186.491)">
            <path d="M0.237,-0L0.237,-0.565L0.033,-0.565L0.033,-0.7L0.597,-0.7L0.597,-0.565L0.387,-0.565L0.387,-0L0.237,-0Z" style="fill:rgb(84,84,84);fill-rule:nonzero;"/>
        </g>
        <g transform="matrix(39.7275,0,0,39.7275,294.411,186.491)">
            <path d="M0.398,0.01C0.347,0.01 0.3,0.001 0.257,-0.017C0.214,-0.034 0.176,-0.059 0.145,-0.092C0.113,-0.124 0.088,-0.162 0.071,-0.206C0.054,-0.251 0.045,-0.299 0.045,-0.352C0.045,-0.403 0.054,-0.451 0.072,-0.495C0.09,-0.538 0.115,-0.576 0.148,-0.609C0.181,-0.641 0.219,-0.666 0.263,-0.684C0.307,-0.702 0.355,-0.711 0.406,-0.711C0.439,-0.711 0.472,-0.707 0.504,-0.698C0.537,-0.689 0.567,-0.675 0.594,-0.658C0.621,-0.641 0.644,-0.62 0.663,-0.596L0.569,-0.492C0.554,-0.508 0.537,-0.522 0.52,-0.534C0.503,-0.545 0.485,-0.554 0.466,-0.561C0.447,-0.567 0.426,-0.57 0.405,-0.57C0.376,-0.57 0.349,-0.565 0.325,-0.554C0.3,-0.543 0.278,-0.529 0.259,-0.509C0.24,-0.491 0.226,-0.468 0.215,-0.441C0.203,-0.413 0.198,-0.384 0.198,-0.351C0.198,-0.318 0.203,-0.288 0.214,-0.261C0.225,-0.234 0.24,-0.211 0.259,-0.192C0.278,-0.172 0.302,-0.158 0.329,-0.148C0.356,-0.137 0.385,-0.132 0.418,-0.132C0.439,-0.132 0.46,-0.135 0.48,-0.141C0.5,-0.147 0.519,-0.155 0.536,-0.166C0.553,-0.177 0.568,-0.189 0.581,-0.203L0.655,-0.086C0.638,-0.068 0.617,-0.052 0.59,-0.037C0.563,-0.022 0.532,-0.011 0.499,-0.003C0.466,0.006 0.432,0.01 0.398,0.01Z" style="fill:rgb(84,84,84);fill-rule:nonzero;"/>
        </g>
        <g transform="matrix(39.7275,0,0,39.7275,321.783,186.491)">
            <path d="M0.532,-0L0.532,-0.7L0.682,-0.7L0.682,-0L0.532,-0ZM0.091,-0L0.091,-0.7L0.241,-0.7L0.241,-0L0.091,-0ZM0.151,-0.281L0.152,-0.417L0.609,-0.417L0.609,-0.281L0.151,-0.281Z" style="fill:rgb(84,84,84);fill-rule:nonzero;"/>
        </g>
    </g>
</svg>
